<svg width="128" height="128" viewBox="0 0 128 128" fill="none" xmlns="http://www.w3.org/2000/svg">
<mask id="mask0_8_158" style="mask-type:alpha" maskUnits="userSpaceOnUse" x="10" y="12" width="107" height="103">
<path d="M60.5333 13.3333C59.0667 13.8667 55.4667 16.9333 52.4 20C48 24.6667 46.8 26.9333 46.1333 32.5333C44.8 42.5333 41.2 48.9333 31.3333 58.6667C21.7333 68.1333 23.2 67.8667 13.4667 61.4667L10.2667 59.4667L10.9333 69.4667C11.7333 82 15.4667 90.1333 24.6667 99.3333C28.4 103.067 35.0667 108 39.7333 110.533L48.1333 114.933L43.4667 108.667C37.4667 100.933 33.0667 86.8 33.6 77.3333L34 70.4L39.8667 78.2667C43.0667 82.5333 45.3333 84.9333 44.9333 83.7333C41.7333 74.2667 41.2 70 42.6667 64.2667C44.2667 58 50 49.3333 52.5333 49.3333C53.4667 49.3333 56.1333 51.4667 58.6667 54L63.2 58.6667L68 54C70.6667 51.4667 73.4667 49.3333 74.4 49.3333C77.2 49.3333 83.8667 60 84.8 66.1333C85.3333 70 84.9333 74.1333 83.6 78.2667C82.4 81.7333 81.6 84.8 81.7333 84.9333C82 85.0667 84.4 81.8667 87.3333 77.8667L92.6667 70.5333L93.0667 76.2667C94 87.4667 89.3333 101.733 81.8667 110.533L78.4 114.8L82.1333 113.067C89.4667 110 100 102.4 104.667 96.9333C112 88.4 115.067 80.9333 115.733 69.4667L116.4 59.4667L113.2 61.4667C103.467 67.8667 104.8 68 96.5333 60C88.4 51.8667 83.8667 46.2667 83.4667 43.3333C83.3333 42.2667 82.8 40.9333 82.2667 40.5333C81.7333 40 81.3333 37.6 81.3333 35.2C81.3333 28.6667 79.2 24.1333 73.3333 18.6667C67.4667 13.0667 64.5333 11.8667 60.5333 13.3333Z" fill="black"/>
<path d="M49.4667 71.2C49.3333 73.3334 50.9333 78.5334 52.8 82.8C56.2667 90.2667 56.2667 90.8 54.1333 93.2C51.8667 95.7334 52 96.2667 57.3333 105.2C60.4 110.4 63.2 114.667 63.3333 114.667C63.4667 114.667 66.1333 110.533 69.2 105.333C74.4 96.6667 74.6667 95.8667 72.8 92.9334C70.9333 90.1334 71.0667 89.3334 74 83.3334C75.7333 79.6 77.2 74.5334 77.3333 72V67.3334L74.5333 72C67.2 84.1334 62.1333 85.7334 56.4 77.4667C54.2667 74.6667 52 71.2 51.0667 69.8667C49.6 67.6 49.4667 67.7334 49.4667 71.2Z" fill="black"/>
</mask>
<g mask="url(#mask0_8_158)">
<rect width="151" height="131" fill="url(#paint0_linear_8_158)"/>
</g>
<defs>
<linearGradient id="paint0_linear_8_158" x1="75.5" y1="0" x2="75.5" y2="131" gradientUnits="userSpaceOnUse">
<stop stop-color="#CEBF90"/>
<stop offset="1" stop-color="#4B3C1D"/>
</linearGradient>
</defs>
</svg>
