<svg width="128" height="128" viewBox="0 0 128 128" fill="none" xmlns="http://www.w3.org/2000/svg">
<mask id="mask0_8_83" style="mask-type:alpha" maskUnits="userSpaceOnUse" x="0" y="0" width="128" height="128">
<path d="M109.067 20.5333C107.867 30.2666 100.933 40.5333 90.5334 47.4666L81.7334 53.3333L79.4667 65.2C78.2667 71.7333 77.3334 78.2667 77.3334 79.7333C77.3334 86.4 86.4 89.0667 90 83.4667C92.4 79.8667 91.4667 76.4 87.6 73.2C84.9334 70.9333 84.9334 70.9333 88.4 67.4667C90.9334 64.9333 93.2 64 97.2 64C106.667 64 109.733 61.3333 103.067 58.9333C99.4667 57.6 99.6 57.6 104.8 57.4666C109.733 57.3333 110.267 56.9333 113.067 51.3333L116 45.3333L111.067 43.3333C105.6 41.0666 106 39.6 112.267 39.4666C116.133 39.3333 116.667 38.8 116.933 35.3333C117.467 30.1333 115.067 21.4666 112.133 17.4666L109.733 14.2666L109.067 20.5333Z" fill="url(#paint0_linear_8_83)"/>
<path d="M16.9333 19.0666C15.7333 20.9333 14.1333 25.2 13.3333 28.6666C11.6 36.5333 13.2 39.8666 18.6667 39.7333C24.6667 39.6 24.9334 40.9333 19.4667 43.2C14 45.4666 14 45.4666 16.6667 50.6666C18.4 54.1333 19.4667 54.6666 24.4 54.6666L30 54.8L25.6 57.0666C21.3334 59.3333 21.3334 59.6 23.7333 61.7333C25.2 63.0666 28.4 64 31.7334 64C35.6 64 38.2667 64.9333 40.9334 67.2L44.6667 70.4L41.7334 73.6C38.1334 77.3333 37.8667 81.6 40.8 84.5333C43.6 87.4666 48.4 87.2 51.3334 84C53.6 81.4666 53.6 80.8 51.4667 69.7333C48.2667 53.2 48.5334 53.8666 40.6667 48.5333C31.0667 42.2666 25.3334 34.6666 21.8667 24.2666L19.2 15.7333L16.9333 19.0666Z" fill="url(#paint1_linear_8_83)"/>
<path d="M55.7333 25.8666L51.7333 33.7333L56.5333 47.2C60.9333 59.4666 61.3333 62 61.3333 74.8C61.3333 85.3333 60.6667 91.3333 58.6667 97.8666L55.8667 106.667L58.6667 112C60.9333 116.267 62.1333 117.333 65.2 117.333C68.2667 117.333 69.3333 116.4 71.3333 112C73.7333 106.8 73.7333 106.4 70.9333 96.8C66.5333 81.8666 66.9333 65.3333 71.8667 50.9333C73.8667 44.9333 76 39.6 76.4 39.0666C78.2667 37.3333 77.2 31.8666 74 24.6666C70.5333 17.3333 70.5333 17.3333 65.2 17.6C60 18 59.4667 18.4 55.7333 25.8666ZM70 29.3333C72.5333 34.4 72.6667 34.2666 68.5333 43.4666L65.0667 51.3333L61.7333 44.6666C57.7333 36.9333 57.4667 33.6 60.6667 28.9333C63.7333 24.2666 67.4667 24.4 70 29.3333Z" fill="url(#paint2_linear_8_83)"/>
</mask>
<g mask="url(#mask0_8_83)">
<rect x="-10" y="-6" width="151" height="131" fill="url(#paint3_linear_8_83)"/>
</g>
<defs>
<linearGradient id="paint0_linear_8_83" x1="97.1707" y1="86.5042" x2="97.1707" y2="14.2666" gradientUnits="userSpaceOnUse">
<stop stop-color="#7C622E"/>
<stop offset="1" stop-color="#CEBF90"/>
</linearGradient>
<linearGradient id="paint1_linear_8_83" x1="32.8584" y1="86.5764" x2="32.8584" y2="15.7333" gradientUnits="userSpaceOnUse">
<stop stop-color="#7C622E"/>
<stop offset="1" stop-color="#CEBF90"/>
</linearGradient>
<linearGradient id="paint2_linear_8_83" x1="64.5259" y1="117.333" x2="64.5259" y2="17.5214" gradientUnits="userSpaceOnUse">
<stop stop-color="#7C622E"/>
<stop offset="1" stop-color="#CEBF90"/>
</linearGradient>
<linearGradient id="paint3_linear_8_83" x1="65.5" y1="-6" x2="65.5" y2="125" gradientUnits="userSpaceOnUse">
<stop stop-color="#CEBF90"/>
<stop offset="1" stop-color="#4B3C1D"/>
</linearGradient>
</defs>
</svg>
