<svg width="128" height="128" viewBox="0 0 128 128" fill="none" xmlns="http://www.w3.org/2000/svg">
<mask id="mask0_8_80" style="mask-type:alpha" maskUnits="userSpaceOnUse" x="0" y="0" width="128" height="128">
<path d="M15.6 22.4C8.80001 43.6 12.1333 63.8667 24.1333 74C27.8667 77.0667 28.4 77.2 31.0667 75.3333C32.6667 74.2667 34.9333 73.3333 36.2667 73.3333C39.4667 73.3333 39.3333 72.6667 35.3333 67.4667C31.2 62.1333 31.2 62.6667 35.4667 53.2L39.0667 45.3333L33.7333 40.2667C27.6 34.6667 24.5333 29.2 21.3333 18.6667L19.0667 11.3333L15.6 22.4Z" fill="url(#paint0_linear_8_80)"/>
<path d="M62 16.2667C58.4 23.6 62.6667 29.8667 67.7333 24.8C69.7333 22.8 69.6 22.2667 67.0667 17.0667L64.2667 11.3333L62 16.2667Z" fill="url(#paint1_linear_8_80)"/>
<path d="M108.8 13.4667C108.4 14.5333 107.467 18 106.667 21.2C104.933 28 102.4 32.2667 96.8 38.2667C93.2 42.2667 92.8 43.3333 92.8 53.2C92.6667 63.3333 92.4 64 88.4 68.2667C83.0667 73.7333 82.1333 78.8 86.9333 75.4667C90.8 72.8 94.5333 72.8 97.4667 75.4667C100.4 78.1333 103.067 76.5333 109.333 68.6667C118 57.8667 119.467 40.2667 113.2 21.3333C110 11.6 109.6 10.9333 108.8 13.4667Z" fill="url(#paint2_linear_8_80)"/>
<path d="M40 15.0667C40 24.9333 48.1333 31.4667 50.1333 23.3333C50.6667 21.4667 50.8 19.7333 50.5333 19.4667C46.2667 16.4 40 13.7333 40 15.0667Z" fill="url(#paint3_linear_8_80)"/>
<path d="M82.9333 16.9333C77.2 19.7333 77.2 25.7333 82.8 26.4C85.7333 26.8 86.5333 26.1333 87.2 23.0666C87.7333 21.0666 88.4 18.2666 88.8 16.9333C89.7333 14.1333 88.5333 14.1333 82.9333 16.9333Z" fill="url(#paint4_linear_8_80)"/>
<path d="M46.6667 36.6667C46.6667 40.8 47.0667 41.3333 51.0667 42C58.2667 43.2 72.6667 45.3333 73.6 45.3333C74.1333 45.3333 73.8667 47.3333 73.2 49.6C71.4667 56 71.6 56.9333 75.3333 57.8667C77.2 58.4 79.4667 60.2667 80.2667 62C83.2 68.4 85.3333 63.4667 85.3333 50.5333C85.3333 44 85.2 38.6667 85.0667 38.6667C84.8 38.6667 76.9333 37.2 67.3333 35.3333C45.6 31.2 46.6667 31.0667 46.6667 36.6667Z" fill="url(#paint5_linear_8_80)"/>
<path d="M42.8 54.5333L39.6 61.2L45.8667 70.2666C52.9333 80.6666 52.9333 80.4 49.2 92L46.5333 100.667L55.6 108.933L64.6667 117.333L73.4667 108.533L82.2667 99.8666L78.5333 83.0666C74 63.3333 74.2667 64 68.9333 64C59.8667 64 54.6667 62.4 54.6667 59.8666C54.6667 58 55.6 57.3333 58.6667 57.3333C61.2 57.3333 63.0667 56.4 64 54.8C65.8667 51.0666 65.8667 51.0666 59.7333 50.1333C56.5333 49.6 52.1333 48.9333 50 48.5333C46.1333 47.8666 45.7333 48.2666 42.8 54.5333Z" fill="url(#paint6_linear_8_80)"/>
<path d="M37.3333 88.8C29.0667 97.2 25.4667 99.3333 18 100.667C15.0667 101.2 12.1333 102 11.6 102.267C10.2667 103.067 22.5333 116 24.6667 116C26.8 116 39.4667 101.067 40.4 97.3333C40.9333 95.4667 42.1333 91.2 43.2 87.6C44.2667 84.1333 45.0667 81.3333 44.9333 81.3333C44.6667 81.3333 41.3333 84.6667 37.3333 88.8Z" fill="url(#paint7_linear_8_80)"/>
<path d="M87.6 92.8C89.3333 100.4 90.8 103.2 96.4 109.6C104.4 118.933 103.333 118.8 111.2 110.8C118.267 103.6 118.267 101.333 111.2 101.333C104.933 101.333 102 99.7333 93.0667 90.9333L85.4667 83.6L87.6 92.8Z" fill="url(#paint8_linear_8_80)"/>
</mask>
<g mask="url(#mask0_8_80)">
<rect x="-9" y="1" width="151" height="131" fill="url(#paint9_linear_8_80)"/>
</g>
<defs>
<linearGradient id="paint0_linear_8_80" x1="25.5934" y1="76.5579" x2="25.5934" y2="11.3333" gradientUnits="userSpaceOnUse">
<stop stop-color="#7C622E"/>
<stop offset="1" stop-color="#CEBF90" stop-opacity="0.99"/>
</linearGradient>
<linearGradient id="paint1_linear_8_80" x1="64.8882" y1="26.6356" x2="64.8882" y2="11.3333" gradientUnits="userSpaceOnUse">
<stop stop-color="#7C622E"/>
<stop offset="1" stop-color="#CEBF90" stop-opacity="0.99"/>
</linearGradient>
<linearGradient id="paint2_linear_8_80" x1="100.429" y1="76.6615" x2="100.429" y2="12.208" gradientUnits="userSpaceOnUse">
<stop stop-color="#7C622E"/>
<stop offset="1" stop-color="#CEBF90" stop-opacity="0.99"/>
</linearGradient>
<linearGradient id="paint3_linear_8_80" x1="45.3333" y1="27.0077" x2="45.3333" y2="14.7145" gradientUnits="userSpaceOnUse">
<stop stop-color="#7C622E"/>
<stop offset="1" stop-color="#CEBF90" stop-opacity="0.99"/>
</linearGradient>
<linearGradient id="paint4_linear_8_80" x1="83.8512" y1="26.5049" x2="83.8512" y2="14.8333" gradientUnits="userSpaceOnUse">
<stop stop-color="#7C622E"/>
<stop offset="1" stop-color="#CEBF90" stop-opacity="0.99"/>
</linearGradient>
<linearGradient id="paint5_linear_8_80" x1="65.9957" y1="64.7907" x2="65.9957" y2="32.3361" gradientUnits="userSpaceOnUse">
<stop stop-color="#7C622E"/>
<stop offset="1" stop-color="#CEBF90" stop-opacity="0.99"/>
</linearGradient>
<linearGradient id="paint6_linear_8_80" x1="60.9333" y1="117.333" x2="60.9333" y2="48.2989" gradientUnits="userSpaceOnUse">
<stop stop-color="#7C622E"/>
<stop offset="1" stop-color="#CEBF90" stop-opacity="0.99"/>
</linearGradient>
<linearGradient id="paint7_linear_8_80" x1="28.2234" y1="116" x2="28.2234" y2="81.3333" gradientUnits="userSpaceOnUse">
<stop stop-color="#7C622E"/>
<stop offset="1" stop-color="#CEBF90" stop-opacity="0.99"/>
</linearGradient>
<linearGradient id="paint8_linear_8_80" x1="100.983" y1="116.706" x2="100.983" y2="83.6" gradientUnits="userSpaceOnUse">
<stop stop-color="#7C622E"/>
<stop offset="1" stop-color="#CEBF90" stop-opacity="0.99"/>
</linearGradient>
<linearGradient id="paint9_linear_8_80" x1="66.5" y1="1" x2="66.5" y2="132" gradientUnits="userSpaceOnUse">
<stop stop-color="#CEBF90"/>
<stop offset="1" stop-color="#4B3C1D"/>
</linearGradient>
</defs>
</svg>
