<svg width="132" height="135" viewBox="0 0 132 135" fill="none" xmlns="http://www.w3.org/2000/svg">
<mask id="mask0_8_111" style="mask-type:alpha" maskUnits="userSpaceOnUse" x="0" y="0" width="132" height="135">
<path d="M62.975 12.7617C62.1844 13.0078 61.3937 13.3594 61.2562 13.6055C61.1187 13.8516 60.3969 14.168 59.6406 14.3437C55.6875 15.2578 48.4344 21.832 46.2 26.5078C44.1031 30.8672 44 35.7891 45.8906 41.6601C46.2 42.6094 46.75 44.0508 47.1281 44.8594C47.4719 45.668 47.7812 46.4766 47.7812 46.6875C47.7812 47.7773 50.325 47.3906 51.7344 46.0898C52.1125 45.7383 52.8344 45.3516 53.3156 45.2461C53.7969 45.1055 54.3812 44.6133 54.5875 44.1562C55.1719 42.7851 56.5812 42.6094 57.6812 43.6992L58.5406 44.6133L57.6469 45.9844C57.1312 46.7227 56.375 47.707 55.9281 48.1641C55.5156 48.6211 54.8625 49.5 54.4844 50.1328C53.1094 52.3828 50.3594 56.3555 49.775 56.918C49.4312 57.1992 49.1562 57.6211 49.1562 57.832C49.1562 58.043 48.8812 58.6055 48.5719 59.0625C46.3031 62.2969 45.4781 67.6055 46.7156 70.4883C47.0937 71.4023 47.4375 72.3164 47.4375 72.5273C47.4375 72.9492 48.6406 74.8125 50.5312 77.3789C52.3531 79.8398 55.9281 84.4453 56.6156 85.2539C56.9594 85.6406 57.8875 86.8008 58.6781 87.8906C59.4687 88.9453 60.3625 90.1406 60.6719 90.5273C60.9469 90.9141 61.875 92.1797 62.7344 93.3398C65.3812 97.0312 65.6906 97.3828 66.1719 97.3828C66.4125 97.3828 66.6875 97.1719 66.7906 96.9258C66.9281 96.5039 68.4406 94.3242 71.5 90.0352C72.1531 89.0859 73.9062 86.8359 75.35 85.043C80.4375 78.7148 80.85 78.2227 82.1219 76.4648C83.6687 74.3555 84.3219 73.125 85.0094 71.0156C85.9031 68.3086 85.9719 67.5703 85.5937 65.1445C85.0437 61.6289 84.6656 60.8906 79.2344 52.3477C76.8969 48.6914 75.5562 46.4766 74.9719 45.3867C74.6969 44.8945 74.0437 43.9453 73.4937 43.3125C72.9781 42.6797 72.5312 41.9414 72.5312 41.6953C72.5312 41.4492 72.1875 40.7812 71.775 40.2539C70.7437 38.918 67.7875 33.8203 67.1687 32.3789C66.6187 31.043 64.9687 31.0078 63.9375 32.3086C63.3187 33.082 59.6062 33.5742 58.3 33.0469C57.8187 32.8711 57.0625 32.0273 56.5812 31.1836C54.3812 27.3516 56.2719 21.7617 61.2562 17.4023C65.1406 13.9922 65.3125 13.8164 65.3125 13.0078C65.3125 12.2344 65.0719 12.1992 62.975 12.7617ZM67.925 55.7227C68.475 56.8828 69.3687 58.5 69.8844 59.3086C70.4 60.1523 70.8125 60.9609 70.8125 61.1367C70.8125 61.3125 71.1906 61.9453 71.6719 62.5078C73.1156 64.2656 74.9375 68.1328 74.9375 69.4336C74.9375 70.9453 73.9062 73.0195 71.6719 75.9375C70.7094 77.2031 69.7125 78.5391 69.4375 78.9609C65.8625 84.1289 65.7937 84.1289 62.7344 79.2773C62.0125 78.1523 60.9125 76.6406 60.3281 75.9375C56.4781 71.4727 55.9969 68.8711 58.3687 65.3203C59.8812 63.0703 59.9844 62.8594 61.9781 59.4141C62.8031 57.9727 63.6625 56.25 63.8687 55.582C64.8312 52.7695 66.4469 52.8047 67.925 55.7227Z" fill="black"/>
<path d="M15.5031 86.9062C15.125 87.9258 14.6437 89.543 14.4719 90.5273C14.3 91.4766 13.8875 92.7422 13.6125 93.3398C13.3031 93.9023 13.0625 94.6055 13.0625 94.8516C13.0625 95.0977 12.7531 95.9062 12.375 96.6797C11.9969 97.418 11.6531 98.5781 11.6188 99.2109L11.5156 100.371H23.0312C33.3438 100.371 34.65 100.441 35.6469 100.969C36.2656 101.32 37.1938 101.602 37.7094 101.602C38.2594 101.602 39.2906 101.918 40.0125 102.27C40.7344 102.656 41.7656 103.078 42.35 103.184C43.2094 103.395 46.4406 105.188 51.7 108.457C53.7969 109.758 58.7812 114.363 58.7812 114.996C58.7812 115.945 57.6125 116.121 53.5219 115.734C48.125 115.277 48.2969 115.137 48.3312 119.988C48.3656 122.027 48.4688 123.82 48.5719 123.961C48.675 124.137 56.5469 124.277 66.0688 124.277H83.3594L83.4625 120.199C83.5656 115.102 83.6 115.137 79.7156 115.664C71.7406 116.684 71.3281 115.664 77.6875 110.566C79.6813 108.984 81.7781 107.402 82.3281 107.086C82.9125 106.77 83.6 106.348 83.875 106.172C85.4906 105.082 88.7906 103.395 89.65 103.184C90.2344 103.078 91.2656 102.656 91.9875 102.27C92.7094 101.918 93.6375 101.602 94.05 101.602C94.4625 101.602 95.4594 101.32 96.2844 101.004C97.625 100.441 99.1375 100.371 109.141 100.371C121.825 100.371 121.481 100.441 120.003 97.9453C119.591 97.3125 119.281 96.5039 119.281 96.1875C119.281 95.8359 118.972 94.8516 118.628 93.9375C117.734 91.7227 116.634 87.9961 116.359 86.3789C116.188 85.2539 116.05 85.0781 115.225 85.0781C96.6281 85.3242 89.2375 87.1875 80.6094 93.8672C76.7594 96.8203 75.9688 97.6289 72.875 101.461C71.6375 102.973 70.2969 104.59 69.85 105.082C69.4375 105.539 68.5094 106.699 67.8219 107.648C67.1 108.562 66.3094 109.336 66.0344 109.336C65.45 109.336 63.5938 107.648 63.5938 107.121C63.5938 106.91 63.3875 106.594 63.1469 106.383C62.8719 106.172 61.6688 104.73 60.4656 103.184C54.5531 95.6602 45.4781 88.7695 40.0469 87.75C39.325 87.6094 38.2938 87.293 37.8125 87.0117C36.5406 86.3789 32.2781 85.8164 25.2656 85.4297C15.5031 84.9023 16.3625 84.7617 15.5031 86.9062Z" fill="black"/>
</mask>
<g mask="url(#mask0_8_111)">
<rect x="-9" y="2" width="151" height="131" fill="url(#paint0_linear_8_111)"/>
</g>
<defs>
<linearGradient id="paint0_linear_8_111" x1="66.5" y1="2" x2="66.5" y2="133" gradientUnits="userSpaceOnUse">
<stop stop-color="#CEBF90"/>
<stop offset="1" stop-color="#4B3C1D"/>
</linearGradient>
</defs>
</svg>
