<svg width="128" height="128" viewBox="0 0 128 128" fill="none" xmlns="http://www.w3.org/2000/svg">
<mask id="mask0_8_128" style="mask-type:alpha" maskUnits="userSpaceOnUse" x="0" y="0" width="128" height="128">
<path d="M63.4667 13.3333C63.0667 14.4 61.2 19.7333 59.3333 25.2L56 35.0666L59.7333 39.4666C64.2667 44.9333 64.5333 44.9333 68.6667 39.3333C72.2667 34.8 72.2667 34.8 70.1333 27.6C66.9333 16.5333 64.2667 10.9333 63.4667 13.3333Z" fill="black"/>
<path d="M36 23.6C36 29.2 41.3333 38 45.0667 38.4C51.8667 39.0667 51.8667 32.9333 44.8 28.1333C37.0667 22.9333 36 22.4 36 23.6Z" fill="black"/>
<path d="M86.6667 26.2666C84.1333 28 81.2 30 80.1333 30.5333C76.6667 32.5333 79.4667 38.6666 83.8667 38.6666C87.4667 38.6666 88 38 90.4 30.6666C93.4667 21.7333 93.3333 21.4666 86.6667 26.2666Z" fill="black"/>
<path d="M29.2 48.4C20.4 58.8 8.53333 80 11.4667 80C11.8667 80 14.6667 78 17.4667 75.4666C20.4 73.0666 26.1333 69.7333 30.1333 68.1333L37.4667 65.3333L44 72C47.6 75.7333 51.2 78.6666 52 78.6666C54.1333 78.6666 52.4 70.8 49.6 67.6C47.0667 64.6666 48.9333 62.2666 53.4667 62.9333C56.5333 63.3333 56.8 64.2666 59.0667 79.2L61.3333 94.9333L57.3333 100.4C54.4 104.533 53.3333 107.333 53.3333 111.6C53.3333 118.133 52.9333 118 59.8667 115.2C64.6667 113.333 65.4667 113.333 69.2 115.2C75.0667 118.267 76 117.867 76 111.867C76 107.867 74.9333 104.933 71.8667 100.667L67.7333 94.8L70 79.3333C72.5333 62.8 72.9333 62 78.2667 63.3333C81.3333 64 81.4667 64.2666 79.6 66.4C77.4667 68.9333 74.4 78.6666 75.7333 78.6666C78.2667 78.6666 85.3333 73.0666 87.4667 69.4666C89.4667 66.1333 90.4 65.6 93.2 66.2666C98.8 67.6 109.733 73.3333 113.733 77.0666C122 84.8 114.933 68.5333 103.333 52.9333C95.3333 42.4 93.3333 40.8 93.3333 45.2C93.3333 48.6666 88.8 49.4666 82.4 47.2C74.6667 44.5333 73.8667 44.6666 69.7333 50.6666C65.0667 57.2 65.2 57.2 58.9333 50.5333L53.8667 45.0666L47.3333 46.9333C39.4667 49.2 36.8 48.8 35.2 45.2C34.1333 42.8 33.6 43.0666 29.2 48.4Z" fill="black"/>
</mask>
<g mask="url(#mask0_8_128)">
<rect x="-11" y="2" width="151" height="131" fill="url(#paint0_linear_8_128)"/>
</g>
<defs>
<linearGradient id="paint0_linear_8_128" x1="64.5" y1="2" x2="64.5" y2="133" gradientUnits="userSpaceOnUse">
<stop stop-color="#CEBF90"/>
<stop offset="1" stop-color="#4B3C1D"/>
</linearGradient>
</defs>
</svg>
