<svg width="128" height="128" viewBox="0 0 128 128" fill="none" xmlns="http://www.w3.org/2000/svg">
<g clip-path="url(#clip0_7_159)">
<mask id="mask0_7_159" style="mask-type:alpha" maskUnits="userSpaceOnUse" x="0" y="0" width="128" height="128">
<path d="M36.5333 20.9333C36.1333 22.2666 35.2 24.8 34.5333 26.4C33.2 29.8666 34.1333 31.8666 44.2667 46.9333C47.0667 51.0666 49.3333 55.0666 49.3333 55.6C49.3333 56.1333 42.5333 56.5333 34.4 56.2666L19.3333 55.7333L15.4667 59.8666L11.4667 64L15.4667 68.1333L19.3333 72.2666L34.4 71.7333C42.5333 71.4666 49.3333 71.7333 49.3333 72.4C49.3333 72.9333 46.1333 78.2666 42.2667 84.4C38.2667 90.4 34.8 96 34.2667 96.8C32.4 100 37.4667 109.467 40.5333 108.533C47.6 106.4 50.1333 104 56.1333 93.3333C59.7333 87.0666 63.2 82 64 82C64.8 82 68.2667 87.0666 71.8667 93.3333C80.8 109.067 88.8 113.067 92.4 103.867C94.9333 97.6 95.0667 97.8666 83.7333 81.0666C80.9333 76.9333 78.6667 72.9333 78.6667 72.4C78.6667 71.8666 85.4667 71.4666 93.7333 71.7333L108.667 72.2666L112.533 68.1333L116.533 64L112.533 59.8666L108.667 55.7333L93.7333 56.2666C85.4667 56.5333 78.6667 56.1333 78.6667 55.6C78.6667 55.0666 80.9333 51.0666 83.7333 46.9333C94.6667 30.5333 94.8 30.5333 92.6667 24.6666C89.2 14.5333 80.6667 18.9333 71.4667 35.6C67.7333 42.4 64.4 47.8666 64 47.8666C63.6 47.8666 60.2667 42.4 56.5333 35.6C50 23.7333 48 21.7333 40.2667 19.3333C38.1333 18.6666 37.0667 19.0666 36.5333 20.9333Z" fill="black"/>
</mask>
<g mask="url(#mask0_7_159)">
<rect width="151" height="131" fill="url(#paint0_linear_7_159)"/>
</g>
</g>
<defs>
<linearGradient id="paint0_linear_7_159" x1="75.5" y1="0" x2="75.5" y2="131" gradientUnits="userSpaceOnUse">
<stop stop-color="#CEBF90"/>
<stop offset="1" stop-color="#4B3C1D"/>
</linearGradient>
<clipPath id="clip0_7_159">
<rect width="128" height="128" fill="white"/>
</clipPath>
</defs>
</svg>
