<svg width="128" height="128" viewBox="0 0 128 128" fill="none" xmlns="http://www.w3.org/2000/svg">
<g clip-path="url(#clip0_7_148)">
<mask id="mask0_7_148" style="mask-type:alpha" maskUnits="userSpaceOnUse" x="-1" y="0" width="128" height="128">
<path d="M50.4316 13.1615C49.8983 13.6949 43.8983 15.9615 36.9649 18.3615C30.0316 20.6282 23.4983 23.0282 22.2983 23.6949C21.0983 24.3615 18.4316 25.1615 16.4316 25.6949C12.8316 26.3615 12.6983 26.6282 13.2316 34.0949C13.6316 38.2282 14.9649 50.6282 16.2983 61.5616L18.5649 81.2949L36.0316 96.2282C57.3649 114.495 59.0983 115.695 64.1649 115.695C68.9649 115.695 70.9649 114.362 92.5649 95.8282C103.632 86.3616 108.965 80.8949 109.365 78.4949C111.632 67.1615 115.498 28.6282 114.565 27.6949C113.232 26.3615 85.2316 16.0949 76.1649 13.5615C69.7649 11.6949 52.4316 11.4282 50.4316 13.1615ZM83.4983 20.2282C88.2983 22.2282 95.6316 25.2949 99.8983 26.8949C108.965 30.3615 110.298 31.8282 108.832 37.5615C108.165 39.8282 106.698 49.6949 105.365 59.4282L103.098 77.1615L93.6316 85.4282C88.4316 90.0949 80.9649 96.3616 77.2316 99.5616L70.1649 105.295V93.8282V82.3615H74.1649C77.8983 82.3615 78.1649 81.9616 78.1649 77.6949V73.0282H64.1649H50.1649V77.6949C50.1649 81.9616 50.4316 82.3615 54.1649 82.3615H58.1649V93.8282C58.1649 107.162 60.2983 107.562 39.0983 89.6949C31.2316 83.1615 24.8316 76.7616 24.8316 75.6949C24.6983 74.6282 23.3649 64.3615 21.6316 53.0282C18.4316 31.8282 18.5649 29.0282 23.3649 29.0282C24.5649 29.0282 26.1649 28.4949 26.8316 27.8282C27.6316 27.1615 30.5649 25.6949 33.4983 24.6282C36.4316 23.4282 42.6983 21.0282 47.4983 19.1615C59.0983 14.4949 71.0983 14.8949 83.4983 20.2282Z" fill="black"/>
<path d="M39.2667 39.3333L32.2 42.5333L33 48.2666C35.4 64.8 36.7333 67.3333 44.4667 68.6667C48.6 69.4667 49.4 69.2 50.0667 66.8C50.7333 64.2667 51.6667 64 63.5333 64C75.6667 64 76.3333 64.1333 76.3333 66.8C76.3333 69.4667 76.8667 69.6 82.0667 68.8C85.1333 68.2667 88.4667 67.0667 89.4 66.1333C91 64.5333 95 52 95 48.4C95 47.4666 90.7667 42.4 86.5 39.3333L79 37C78.2 39.4 76.4667 41.5 63.5333 41.5C50.7333 41.5 48.6667 38.4 48 36L39.2667 39.3333Z" fill="black"/>
<path d="M73 32H55L64 24L73 32Z" fill="black" stroke="black"/>
</mask>
<g mask="url(#mask0_7_148)">
<rect x="-1" width="151" height="131" fill="url(#paint0_linear_7_148)"/>
</g>
</g>
<defs>
<linearGradient id="paint0_linear_7_148" x1="74.5" y1="0" x2="74.5" y2="131" gradientUnits="userSpaceOnUse">
<stop stop-color="#CEBF90"/>
<stop offset="1" stop-color="#4B3C1D"/>
</linearGradient>
<clipPath id="clip0_7_148">
<rect width="128" height="128" fill="white"/>
</clipPath>
</defs>
</svg>
