<svg width="41" height="41" viewBox="0 0 41 41" fill="none" xmlns="http://www.w3.org/2000/svg">
<path d="M30.75 34.1667C30.75 31.4482 29.6701 28.8411 27.7478 26.9188C25.8256 24.9966 23.2185 23.9167 20.5 23.9167C17.7815 23.9167 15.1744 24.9966 13.2522 26.9188C11.3299 28.8411 10.25 31.4482 10.25 34.1667" fill="#606060"/>
<path d="M30.75 34.1667C30.75 31.4482 29.6701 28.8411 27.7478 26.9188C25.8256 24.9966 23.2185 23.9167 20.5 23.9167C17.7815 23.9167 15.1744 24.9966 13.2522 26.9188C11.3299 28.8411 10.25 31.4482 10.25 34.1667L20.5 36.8068L30.75 34.1667Z" fill="#606060"/>
<path d="M30.75 34.1667C30.75 31.4482 29.6701 28.8411 27.7478 26.9188C25.8256 24.9966 23.2185 23.9167 20.5 23.9167C17.7815 23.9167 15.1744 24.9966 13.2522 26.9188C11.3299 28.8411 10.25 31.4482 10.25 34.1667L20.5 36.8068L30.75 34.1667Z" stroke="#606060" stroke-width="2" stroke-linecap="round" stroke-linejoin="round"/>
<path d="M20.5 23.9167C24.2739 23.9167 27.3333 20.8573 27.3333 17.0833C27.3333 13.3094 24.2739 10.25 20.5 10.25C16.7261 10.25 13.6667 13.3094 13.6667 17.0833C13.6667 20.8573 16.7261 23.9167 20.5 23.9167Z" fill="#606060" stroke="#606060" stroke-width="2" stroke-linecap="round" stroke-linejoin="round"/>
<path d="M20.5 37.5833C29.9349 37.5833 37.5833 29.9349 37.5833 20.5C37.5833 11.0651 29.9349 3.41666 20.5 3.41666C11.0651 3.41666 3.41666 11.0651 3.41666 20.5C3.41666 29.9349 11.0651 37.5833 20.5 37.5833Z" stroke="#606060" stroke-width="2" stroke-linecap="round" stroke-linejoin="round"/>
</svg>
